<?xml version="1.0" encoding="UTF-8" standalone="no"?>
<svg
   xmlns:dc="http://purl.org/dc/elements/1.1/"
   xmlns:cc="http://creativecommons.org/ns#"
   xmlns:rdf="http://www.w3.org/1999/02/22-rdf-syntax-ns#"
   xmlns:svg="http://www.w3.org/2000/svg"
   xmlns="http://www.w3.org/2000/svg"
   xmlns:sodipodi="http://sodipodi.sourceforge.net/DTD/sodipodi-0.dtd"
   xmlns:inkscape="http://www.inkscape.org/namespaces/inkscape"
   width="196.82"
   height="31.353"
   viewBox="0 0 196.82 31.353"
   version="1.1"
   id="svg70"
   sodipodi:docname="logo.svg"
   inkscape:version="1.0.1 (3bc2e813f5, 2020-09-07)">
  <metadata
     id="metadata74">
    <rdf:RDF>
      <cc:Work
         rdf:about="">
        <dc:format>image/svg+xml</dc:format>
        <dc:type
           rdf:resource="http://purl.org/dc/dcmitype/StillImage" />
      </cc:Work>
    </rdf:RDF>
  </metadata>
  <sodipodi:namedview
     pagecolor="#ffffff"
     bordercolor="#666666"
     borderopacity="1"
     objecttolerance="10"
     gridtolerance="10"
     guidetolerance="10"
     inkscape:pageopacity="0"
     inkscape:pageshadow="2"
     inkscape:window-width="1920"
     inkscape:window-height="1001"
     id="namedview72"
     showgrid="false"
     inkscape:zoom="4.4261535"
     inkscape:cx="103.44957"
     inkscape:cy="12.530892"
     inkscape:window-x="-9"
     inkscape:window-y="-9"
     inkscape:window-maximized="1"
     inkscape:current-layer="g94"
     inkscape:document-rotation="0" />
  <defs
     id="defs53">
    <linearGradient
       id="linear-gradient"
       y1="0.324"
       x2="1"
       y2="0.336"
       gradientUnits="objectBoundingBox">
      <stop
         offset="0"
         stop-color="#ff3158"
         id="stop43" />
      <stop
         offset="1"
         stop-color="#ff1249"
         id="stop45" />
    </linearGradient>
    <linearGradient
       id="linear-gradient-2"
       y1="0.29"
       x2="1"
       y2="0.303"
       gradientUnits="objectBoundingBox">
      <stop
         offset="0"
         stop-color="#ff4e70"
         id="stop48" />
      <stop
         offset="1"
         stop-color="#ff3158"
         id="stop50" />
    </linearGradient>
  </defs>
  <g
     id="Group_1709"
     data-name="Group 1709"
     transform="translate(278.14 3063.742)">
    <g
       aria-label="VNOpenAI"
       transform="matrix(0.84694382,0,0,0.88645977,-23.235694,-422.99469)"
       id="text78"
       style="font-style:normal;font-variant:normal;font-weight:normal;font-stretch:normal;font-size:25.9685px;line-height:1.25;font-family:'Eras Bold ITC';-inkscape-font-specification:'Eras Bold ITC';fill:#000000;fill-opacity:1;stroke:none;stroke-width:0.64921">
      <path
         d="m -229.30322,-2951.239 -0.46916,-1.547 -3.0939,-8.914 -2.43455,-6.8471 q 1.72447,0.025 3.06855,0.025 0.82419,0 2.5867,-0.025 0.29164,1.1285 0.45648,1.7118 0.22824,0.7608 0.86224,2.7515 l 1.86395,5.9976 q 0.27896,0.9383 0.68471,2.4473 l 0.58328,-1.4582 4.4253,-9.6875 q 0.11412,-0.2663 0.25359,-0.6086 0.15216,-0.3424 0.46916,-1.1539 1.83859,0.025 2.95443,0.025 0.69739,0 2.76422,-0.025 -1.29335,2.4092 -2.92906,5.6299 l -4.37458,8.673 q -0.634,1.268 -1.42015,3.0052 -2.13023,-0.025 -3.04319,-0.025 -0.84955,0 -3.20802,0.025 z"
         style="font-style:normal;font-variant:normal;font-weight:normal;font-stretch:normal;font-family:'Eras Bold ITC';-inkscape-font-specification:'Eras Bold ITC';stroke-width:0.64921"
         id="path26" />
      <path
         d="m -214.32822,-2951.239 0.2536,-2.6628 0.49452,-9.0281 0.13948,-3.6392 v -1.978 q 1.96539,0.025 3.4743,0.025 1.07779,0 3.0305,-0.025 l 5.42701,9.8396 0.74812,1.4455 q 0.13948,-2.1302 0.27896,-5.9722 0.15216,-3.842 0.15216,-5.3129 1.55963,0.025 2.49794,0.025 0.43112,0 2.48527,-0.025 l -0.30432,3.7786 -0.5706,10.499 -0.0761,3.0305 q -1.64839,-0.025 -3.08122,-0.025 -1.19191,0 -3.29678,0.025 -0.65936,-1.2426 -0.97636,-1.8006 l -2.13023,-3.6137 q -1.05243,-1.7752 -1.94002,-3.3983 -0.58328,-1.027 -1.2046,-2.257 l -0.26628,6.0103 -0.1268,5.0593 q -1.57231,-0.025 -2.3965,-0.025 -0.6974,0 -2.61207,0.025 z"
         style="font-style:normal;font-variant:normal;font-weight:normal;font-stretch:normal;font-family:'Eras Bold ITC';-inkscape-font-specification:'Eras Bold ITC';stroke-width:0.64921"
         id="path28" />
      <path
         d="m -182.55231,-2968.8768 q 2.02879,0 3.90542,0.5452 1.87663,0.5453 3.2841,1.7499 1.40747,1.1919 2.10487,2.7515 0.69739,1.5596 0.69739,3.5884 0,2.1303 -0.77347,3.9181 -0.7608,1.7752 -2.20631,3.0179 -1.44551,1.2426 -3.44894,1.8259 -2.00343,0.5706 -4.1717,0.5706 -2.14291,0 -4.1083,-0.558 -1.96539,-0.5705 -3.42358,-1.8259 -1.44551,-1.268 -2.05415,-2.8149 -0.60864,-1.547 -0.60864,-3.4363 0,-2.7769 1.28068,-4.8691 1.29335,-2.1048 3.81666,-3.2841 2.53598,-1.1792 5.70597,-1.1792 z m -0.22824,3.8167 q -1.45819,0 -2.63743,0.7227 -1.17923,0.7101 -1.81323,1.9908 -0.63399,1.268 -0.63399,2.7262 0,1.344 0.57059,2.4599 0.58328,1.1158 1.76251,1.7498 1.17924,0.6213 2.49795,0.6213 1.40747,0 2.57403,-0.6974 1.17923,-0.7101 1.78787,-1.9781 0.62131,-1.2806 0.62131,-2.6754 0,-1.3568 -0.57059,-2.498 -0.5706,-1.1538 -1.67376,-1.7878 -1.10315,-0.634 -2.48526,-0.634 z"
         style="font-style:normal;font-variant:normal;font-weight:normal;font-stretch:normal;font-family:'Eras Bold ITC';-inkscape-font-specification:'Eras Bold ITC';stroke-width:0.64921"
         id="path30" />
      <path
         d="m -171.06429,-2945.3048 q 0.24092,-2.5994 0.40576,-5.1861 0.29163,-4.4253 0.39307,-7.4178 0.11412,-3.0051 0.11412,-5.9468 2.57403,-0.3931 4.03222,-0.5199 1.45819,-0.1395 2.91639,-0.1395 1.82591,0 3.36018,0.3804 1.53427,0.3804 2.4599,1.3441 0.93832,0.9636 1.40748,2.295 0.46915,1.3314 0.46915,2.7896 0,1.3314 -0.38039,2.5867 -0.3804,1.2427 -1.16656,2.2444 -0.78615,1.0017 -1.81323,1.4835 -1.01439,0.4819 -2.26971,0.4819 -0.62131,0 -1.29335,-0.1268 -0.65936,-0.1142 -1.25531,-0.3424 -0.59596,-0.2282 -1.00172,-0.4565 -0.39307,-0.2409 -0.98903,-0.6847 l -0.13948,3.5377 q -0.0888,2.4346 -0.0888,3.6772 -1.47087,-0.025 -2.52331,-0.025 -0.91295,0 -2.63742,0.025 z m 5.84545,-15.3174 q -0.10144,0.5706 -0.13948,0.9384 -0.038,0.355 -0.0761,0.9763 -0.038,0.6086 -0.038,0.9764 0,1.0397 0.317,1.7498 0.32967,0.6974 0.90027,1.0905 0.58328,0.3804 1.24263,0.3804 0.6974,0 1.28068,-0.3931 0.58327,-0.4058 0.92563,-1.2046 0.34236,-0.7988 0.34236,-1.8006 0,-1.3567 -0.72276,-2.1809 -0.71007,-0.8242 -2.0795,-0.8242 -0.86224,0 -1.95271,0.2916 z"
         style="font-style:normal;font-variant:normal;font-weight:normal;font-stretch:normal;font-family:'Eras Bold ITC';-inkscape-font-specification:'Eras Bold ITC';stroke-width:0.64921"
         id="path32" />
      <path
         d="m -141.07626,-2955.0684 q -0.16484,0.7608 -0.63399,3.6772 -1.47088,0.2917 -2.47259,0.3804 -1.00172,0.1015 -2.02879,0.1015 -1.50891,0 -2.77691,-0.2156 -1.26799,-0.2029 -2.19362,-0.7354 -0.91296,-0.5326 -1.53427,-1.3187 -0.62132,-0.7989 -0.951,-1.8894 -0.317,-1.0904 -0.317,-2.2443 0,-1.623 0.64668,-3.17 0.64667,-1.5596 1.66107,-2.4345 1.02707,-0.8749 2.35847,-1.2427 1.33139,-0.3677 2.72618,-0.3677 1.44551,0 2.75155,0.3424 1.31871,0.3297 2.23167,1.1665 0.91295,0.8369 1.29335,1.8893 0.39308,1.0525 0.39308,2.2697 0,0.7228 -0.16484,1.6104 l -8.88864,0.013 q -0.0127,0.2029 -0.0127,0.3677 0,1.3694 0.97636,2.0161 0.97635,0.6467 2.38383,0.6467 0.83687,0 1.90199,-0.1902 1.07779,-0.2029 2.6501,-0.6721 z m -7.79816,-4.1083 h 4.18438 q 0.0127,-0.2155 0.0127,-0.3677 0,-0.6593 -0.24092,-1.1285 -0.22824,-0.4691 -0.67203,-0.6847 -0.43112,-0.2156 -0.97636,-0.2156 -0.3804,0 -0.73543,0.1268 -0.35504,0.1142 -0.64668,0.3551 -0.27896,0.2282 -0.46916,0.5325 -0.1902,0.3044 -0.27896,0.596 -0.0888,0.279 -0.17752,0.7861 z"
         style="font-style:normal;font-variant:normal;font-weight:normal;font-stretch:normal;font-family:'Eras Bold ITC';-inkscape-font-specification:'Eras Bold ITC';stroke-width:0.64921"
         id="path34" />
      <path
         d="m -138.38811,-2951.239 q 0.36772,-2.8784 0.55792,-6.3527 0.20288,-3.4869 0.24092,-6.5935 1.52159,0.025 2.62474,0.025 1.28068,0 2.45991,-0.025 l -0.1268,1.7244 q 0.41844,-0.4691 0.72276,-0.7354 0.30431,-0.2789 0.74811,-0.5325 0.45648,-0.2663 0.96368,-0.4312 0.50719,-0.1648 1.10315,-0.2536 0.60864,-0.1014 1.26799,-0.1014 0.91296,0 1.77519,0.2029 0.87492,0.1902 1.4582,0.5579 0.58327,0.355 0.97635,0.9003 0.39308,0.5325 0.51988,1.1538 0.1268,0.6214 0.1268,1.2807 0,0.4819 -0.10144,2.0795 l -0.21556,4.5902 q -0.0634,1.3567 -0.0634,2.5106 -1.28067,-0.025 -2.39651,-0.025 -1.50891,0 -2.75154,0.025 0.11412,-1.1539 0.24092,-3.4236 0.1268,-2.2824 0.1268,-3.208 0,-1.4329 -0.55792,-1.9908 -0.54524,-0.5706 -1.38211,-0.5706 -0.73544,0 -1.3948,0.4819 -0.64667,0.4818 -1.00171,1.4074 -0.35504,0.913 -0.5072,3.0179 -0.13948,2.1048 -0.1902,4.2858 -1.26799,-0.025 -2.47258,-0.025 -1.268,0 -2.75155,0.025 z"
         style="font-style:normal;font-variant:normal;font-weight:normal;font-stretch:normal;font-family:'Eras Bold ITC';-inkscape-font-specification:'Eras Bold ITC';stroke-width:0.64921"
         id="path36" />
      <path
         d="m -122.72839,-2951.239 1.05243,-1.8259 6.55553,-12.3503 0.69739,-1.3821 q 0.30432,-0.6086 0.84956,-1.7498 2.23167,0.025 3.25874,0.025 1.78787,0 3.30946,-0.025 l 1.85127,5.2875 3.76594,10.1693 0.73544,1.8513 q -2.19363,-0.025 -2.66279,-0.025 -1.06511,0 -3.13194,0.025 -0.55792,-2.0922 -1.61035,-4.9198 h -6.39069 q -1.10315,2.2316 -2.28238,4.9198 -2.35847,-0.025 -2.89103,-0.025 -0.96367,0 -3.10658,0.025 z m 9.81427,-8.6097 h 3.94345 q -1.47087,-4.476 -1.61035,-4.9325 -0.83687,1.864 -1.42015,3.0559 z"
         style="font-style:normal;font-variant:normal;font-weight:normal;font-stretch:normal;font-family:'Eras Bold ITC';-inkscape-font-specification:'Eras Bold ITC';stroke-width:0.64921"
         id="path38" />
      <path
         d="m -99.270521,-2951.239 q 0.735437,-10.182 0.735437,-15.6724 l -0.01268,-1.6357 q 2.218988,0.025 2.967104,0.025 0.342358,0 2.726185,-0.025 -0.228239,2.853 -0.367718,5.4016 -0.177519,3.5504 -0.253599,6.6443 -0.07608,3.0812 -0.07608,5.2622 l -2.599386,-0.025 q -0.760796,0 -3.119263,0.025 z"
         style="font-style:normal;font-variant:normal;font-weight:normal;font-stretch:normal;font-family:'Eras Bold ITC';-inkscape-font-specification:'Eras Bold ITC';stroke-width:0.64921"
         id="path40" />
    </g>
    <g
       id="g94"
       transform="matrix(30,0,0,30,-703.85701,-3348.7249)">
      <rect
         width="1.2617284"
         height="0.98800671"
         fill="#da251d"
         id="rect80"
         x="14.237717"
         y="9.5279064"
         style="stroke-width:0.0455814" />
      <polygon
         points="18.53,14.85 15,4 11.47,14.85 20.71,8.15 9.29,8.15 "
         fill="#ffff00"
         id="polygon82"
         transform="matrix(0.05798753,0,0,0.05389959,13.996633,9.5192531)"
         inkscape:transform-center-x="2.7111576"
         inkscape:transform-center-y="0.9037192" />
    </g>
  </g>
</svg>
