<?xml version="1.0" encoding="UTF-8" standalone="no"?>
<svg
   xmlns:dc="http://purl.org/dc/elements/1.1/"
   xmlns:cc="http://creativecommons.org/ns#"
   xmlns:rdf="http://www.w3.org/1999/02/22-rdf-syntax-ns#"
   xmlns:svg="http://www.w3.org/2000/svg"
   xmlns="http://www.w3.org/2000/svg"
   xmlns:sodipodi="http://sodipodi.sourceforge.net/DTD/sodipodi-0.dtd"
   xmlns:inkscape="http://www.inkscape.org/namespaces/inkscape"
   id="Capa_1"
   enable-background="new 0 0 512 512"
   height="512"
   viewBox="0 0 512 512"
   width="512"
   version="1.1"
   sodipodi:docname="camera.svg"
   inkscape:version="1.0.1 (3bc2e813f5, 2020-09-07)">
  <metadata
     id="metadata27">
    <rdf:RDF>
      <cc:Work
         rdf:about="">
        <dc:format>image/svg+xml</dc:format>
        <dc:type
           rdf:resource="http://purl.org/dc/dcmitype/StillImage" />
      </cc:Work>
    </rdf:RDF>
  </metadata>
  <defs
     id="defs25" />
  <sodipodi:namedview
     pagecolor="#ffffff"
     bordercolor="#666666"
     borderopacity="1"
     objecttolerance="10"
     gridtolerance="10"
     guidetolerance="10"
     inkscape:pageopacity="0"
     inkscape:pageshadow="2"
     inkscape:window-width="1920"
     inkscape:window-height="1001"
     id="namedview23"
     showgrid="false"
     inkscape:zoom="0.81054688"
     inkscape:cx="116.68026"
     inkscape:cy="206.2957"
     inkscape:window-x="-9"
     inkscape:window-y="-9"
     inkscape:window-maximized="1"
     inkscape:current-layer="Capa_1" />
  <g
     id="g20"
     transform="matrix(0.64698795,0,0,0.64698795,92.530121,97.750603)">
    <path
       d="M 116,131 H 56 c -8.284,0 -15,-6.716 -15,-15 V 76 C 41,56.701 56.701,41 76,41 h 20 c 19.299,0 35,15.701 35,35 v 40 c 0,8.284 -6.716,15 -15,15 z"
       fill="#ff9d21"
       id="path2" />
    <path
       d="M 457,471 H 55 C 24.673,471 0,446.327 0,416 V 156 c 0,-30.327 24.673,-55 55,-55 h 100.188 l 9.743,-29.23 C 171.067,53.365 188.224,41 207.623,41 h 96.754 c 19.399,0 36.556,12.365 42.691,30.77 L 356.811,101 H 457 c 30.327,0 55,24.673 55,55 v 260 c 0,30.327 -24.673,55 -55,55 z"
       fill="#ffde46"
       id="path4" />
    <path
       d="M 457,101 H 356.812 L 347.069,71.77 C 340.933,53.365 323.776,41 304.377,41 H 256 v 430 h 201 c 30.327,0 55,-24.673 55,-55 V 156 c 0,-30.327 -24.673,-55 -55,-55 z"
       fill="#ff9d21"
       id="path6" />
    <path
       d="m 256,431 c -79.953,0 -145,-65.047 -145,-145 0,-79.953 65.047,-145 145,-145 79.953,0 145,65.047 145,145 0,79.953 -65.047,145 -145,145 z"
       fill="#00429b"
       id="path8" />
    <path
       d="M 401,286 C 401,206.047 335.953,141 256,141 v 290 c 79.953,0 145,-65.047 145,-145 z"
       fill="#00337a"
       id="path10" />
    <path
       d="m 256,396 c -60.654,0 -110,-49.346 -110,-110 0,-60.654 49.346,-110 110,-110 60.654,0 110,49.346 110,110 0,60.654 -49.346,110 -110,110 z"
       fill="#3aafff"
       id="path12" />
    <path
       d="M 366,286 C 366,225.346 316.654,176 256,176 v 220 c 60.654,0 110,-49.346 110,-110 z"
       fill="#008adf"
       id="path14" />
    <circle
       cx="446"
       cy="176"
       fill="#ebe1dc"
       r="15"
       id="circle16" />
    <path
       d="M 86,191 H 56 c -8.284,0 -15,-6.716 -15,-15 0,-8.284 6.716,-15 15,-15 h 30 c 8.284,0 15,6.716 15,15 0,8.284 -6.716,15 -15,15 z"
       fill="#f5f0eb"
       id="path18" />
  </g>
</svg>
