<?xml version="1.0" encoding="UTF-8" standalone="no"?>
<!-- Generator: Adobe Illustrator 16.0.0, SVG Export Plug-In . SVG Version: 6.00 Build 0)  -->

<svg
   xmlns:dc="http://purl.org/dc/elements/1.1/"
   xmlns:cc="http://creativecommons.org/ns#"
   xmlns:rdf="http://www.w3.org/1999/02/22-rdf-syntax-ns#"
   xmlns:svg="http://www.w3.org/2000/svg"
   xmlns="http://www.w3.org/2000/svg"
   xmlns:sodipodi="http://sodipodi.sourceforge.net/DTD/sodipodi-0.dtd"
   xmlns:inkscape="http://www.inkscape.org/namespaces/inkscape"
   version="1.1"
   id="Layer_1"
   x="0px"
   y="0px"
   width="200.203px"
   height="200.203px"
   viewBox="0 0 200.203 200.203"
   enable-background="new 0 0 200.203 200.203"
   xml:space="preserve"
   sodipodi:docname="health-care.svg"
   inkscape:version="0.92.3 (2405546, 2018-03-11)"><metadata
   id="metadata15"><rdf:RDF><cc:Work
       rdf:about=""><dc:format>image/svg+xml</dc:format><dc:type
         rdf:resource="http://purl.org/dc/dcmitype/StillImage" /></cc:Work></rdf:RDF></metadata><defs
   id="defs13" /><sodipodi:namedview
   pagecolor="#ffffff"
   bordercolor="#666666"
   borderopacity="1"
   objecttolerance="10"
   gridtolerance="10"
   guidetolerance="10"
   inkscape:pageopacity="0"
   inkscape:pageshadow="2"
   inkscape:window-width="1853"
   inkscape:window-height="1025"
   id="namedview11"
   showgrid="false"
   inkscape:zoom="1.1788035"
   inkscape:cx="100.1015"
   inkscape:cy="100.1015"
   inkscape:window-x="67"
   inkscape:window-y="27"
   inkscape:window-maximized="1"
   inkscape:current-layer="Layer_1" />
<path
   d="M 115.47444,81.560051 103.14287,113.17394 93.203941,89.694652 85.694946,106.30581 76.035512,92.100612 h -0.126044 v -0.07017 h -22.86566 v 2.818093 h 10.181149 c 1.012743,3.259183 2.502267,6.239905 4.384173,8.771735 5.296083,8.46766 17.157465,21.74388 29.912127,29.23912 0,0 15.361043,-6.90267 29.551513,-28.44939 1.77888,-2.18875 3.26073,-4.747312 4.36225,-7.562064 h 11.21691 v -2.81921 H 121.7756 Z"
   id="path2"
   clip-path="none"
   inkscape:connector-curvature="0"
   style="fill:#ffaa16;stroke-width:1.10492134" />
<path
   d="m 61.96341,86.228284 h 15.71288 l 7.468441,10.981658 8.150179,-18.028006 9.73176,22.969134 12.0795,-30.961158 8.60613,17.007696 9.38104,0.0034 c 0.24879,-1.400136 0.42855,-2.830346 0.49213,-4.29286 0.58856,-14.129454 -8.09649,-25.521013 -19.40327,-25.443043 -6.57735,0.04007 -12.59024,3.957553 -16.594092,10.005873 -4.0718,-5.99931 -10.134014,-9.834368 -16.712467,-9.793155 -11.307881,0.07574 -19.848252,11.579804 -19.078829,25.699233 0.03398,0.622654 0.09974,1.238624 0.166598,1.851255"
   id="path4"
   clip-path="none"
   inkscape:connector-curvature="0"
   style="fill:#ffaa16;stroke-width:1.10492134" />
<path
   d="M 163.97875,43.673954 H 37.373675 c -5.138252,0 -9.303217,4.230482 -9.303217,9.450082 v 85.080814 c 0,5.2196 4.166061,9.4501 9.303217,9.4501 h 40.576626 c 0,0.0324 -0.0087,0.0613 -0.0087,0.0936 v 11.17323 c 0,0.0178 0.0044,0.0301 0.0044,0.0412 H 35.193645 c -1.605704,0 -2.909995,1.32662 -2.909995,2.96291 v 1.7343 c 0,1.63627 1.304291,2.95843 2.909995,2.95843 h 45.661171 39.642784 37.34879 8.93275 c 1.61008,0 2.91109,-1.32328 2.91109,-2.95843 v -1.7343 c 0,-1.63629 -1.3021,-2.96291 -2.91109,-2.96291 h -8.93275 -34.43879 c 0,-0.0111 0.003,-0.0234 0.003,-0.0412 v -11.17327 c 0,-0.0324 -0.007,-0.0613 -0.007,-0.0936 h 40.57554 c 5.13934,0 9.30541,-4.23161 9.30541,-9.4501 v -85.0797 c 0,-5.220714 -4.16607,-9.451196 -9.30541,-9.451196 m 0.51842,87.663886 c 0,4.37751 -3.65858,7.92965 -8.17538,7.92965 H 45.032827 c -4.516795,0 -8.175389,-3.55214 -8.175389,-7.92965 V 59.989937 c 0,-4.377512 3.658594,-7.926306 8.175389,-7.926306 H 156.32179 c 4.5168,0 8.17539,3.549906 8.17539,7.926306 z"
   id="path6"
   clip-path="none"
   inkscape:connector-curvature="0"
   style="fill:#bababa;stroke-width:1.10492134" />
<polygon
   points="124.02,111.338 124.02,121.053 133.088,121.053 133.088,111.338 142.805,111.338 142.805,102.271 133.088,102.271 133.088,92.552 124.02,92.552 124.02,102.271 114.303,102.271 114.303,111.338 "
   id="polygon8"
   transform="matrix(1.0960434,0,0,1.113871,-10.13433,-2.1384494)"
   style="fill:#3b2602" />
</svg>