<?xml version="1.0" encoding="UTF-8" standalone="no"?>
<svg
   xmlns:dc="http://purl.org/dc/elements/1.1/"
   xmlns:cc="http://creativecommons.org/ns#"
   xmlns:rdf="http://www.w3.org/1999/02/22-rdf-syntax-ns#"
   xmlns:svg="http://www.w3.org/2000/svg"
   xmlns="http://www.w3.org/2000/svg"
   xmlns:sodipodi="http://sodipodi.sourceforge.net/DTD/sodipodi-0.dtd"
   xmlns:inkscape="http://www.inkscape.org/namespaces/inkscape"
   viewBox="0 0 512 512"
   version="1.1"
   id="svg6"
   sodipodi:docname="language.svg"
   inkscape:version="1.0.1 (3bc2e813f5, 2020-09-07)">
  <metadata
     id="metadata12">
    <rdf:RDF>
      <cc:Work
         rdf:about="">
        <dc:format>image/svg+xml</dc:format>
        <dc:type
           rdf:resource="http://purl.org/dc/dcmitype/StillImage" />
      </cc:Work>
    </rdf:RDF>
  </metadata>
  <defs
     id="defs10" />
  <sodipodi:namedview
     pagecolor="#ffffff"
     bordercolor="#666666"
     borderopacity="1"
     objecttolerance="10"
     gridtolerance="10"
     guidetolerance="10"
     inkscape:pageopacity="0"
     inkscape:pageshadow="2"
     inkscape:window-width="1920"
     inkscape:window-height="1001"
     id="namedview8"
     showgrid="false"
     inkscape:zoom="1.3037281"
     inkscape:cx="351.78941"
     inkscape:cy="224.56456"
     inkscape:window-x="-9"
     inkscape:window-y="-9"
     inkscape:window-maximized="1"
     inkscape:current-layer="svg6"
     inkscape:document-rotation="0" />
  <g
     id="g116"
     transform="matrix(0.65843147,0,0,0.65843147,86.095871,93.389407)">
    <path
       id="path31"
       d="M 458.667,85.333 H 256 c -1.145,0 -2.282,0.18 -3.371,0.533 l -2.56,0.853 c -5.59,1.86 -8.614,7.899 -6.754,13.488 0.011,0.034 0.023,0.067 0.034,0.101 l 107.221,313.323 -70.613,80.683 c -3.876,4.436 -3.423,11.175 1.013,15.051 1.946,1.701 4.444,2.637 7.029,2.634 H 458.666 C 488.122,512 512,488.122 512,458.667 v -320 c 0,-29.456 -23.878,-53.334 -53.333,-53.334 z"
       style="fill:#eceff1"
       inkscape:connector-curvature="0" />
    <path
       id="path33"
       d="m 372.373,411.584 c -1.731,-3.806 -5.526,-6.25 -9.707,-6.251 H 256 c -5.891,0 -10.667,4.776 -10.667,10.667 0,1.282 0.231,2.554 0.683,3.755 l 32,85.333 c 1.321,3.513 4.392,6.073 8.085,6.741 0.627,0.108 1.262,0.165 1.899,0.171 3.075,-0.003 5.998,-1.333 8.021,-3.648 l 74.667,-85.333 c 2.757,-3.151 3.416,-7.623 1.685,-11.435 z"
       style="fill:#ff9955"
       inkscape:connector-curvature="0" />
    <g
       id="g43">
      <path
         id="path35"
         d="M 458.667,234.667 H 309.333 c -5.891,0 -10.667,-4.776 -10.667,-10.667 0,-5.891 4.776,-10.667 10.667,-10.667 h 149.333 c 5.891,0 10.667,4.776 10.667,10.667 0,5.891 -4.775,10.667 -10.666,10.667 z"
         style="fill:#455a64"
         inkscape:connector-curvature="0" />
      <path
         id="path37"
         d="m 373.333,234.667 c -5.891,0 -10.667,-4.776 -10.667,-10.667 v -21.333 c 0,-5.891 4.776,-10.667 10.667,-10.667 5.891,0 10.667,4.776 10.667,10.667 V 224 c 0,5.891 -4.776,10.667 -10.667,10.667 z"
         style="fill:#455a64"
         inkscape:connector-curvature="0" />
      <path
         id="path39"
         d="m 341.333,362.667 c -5.891,-0.005 -10.663,-4.785 -10.657,-10.676 0.003,-3.443 1.668,-6.673 4.471,-8.673 C 381.867,310.123 416,242.453 416,224 c 0,-5.891 4.776,-10.667 10.667,-10.667 5.891,0 10.667,4.776 10.667,10.667 0,28.117 -41.109,102.101 -89.813,136.683 -1.807,1.288 -3.969,1.982 -6.188,1.984 z"
         style="fill:#455a64"
         inkscape:connector-curvature="0" />
      <path
         id="path41"
         d="m 426.667,384 c -2.669,0.003 -5.241,-0.994 -7.211,-2.795 -7.723,-7.083 -75.904,-70.059 -88,-99.861 -2.221,-5.461 0.406,-11.688 5.867,-13.909 5.461,-2.221 11.688,0.406 13.909,5.867 8.725,21.504 62.635,73.813 82.667,92.139 4.359,3.962 4.681,10.708 0.719,15.068 -2.035,2.238 -4.926,3.507 -7.951,3.491 z"
         style="fill:#455a64"
         inkscape:connector-curvature="0" />
    </g>
    <path
       id="path45"
       d="M 372.757,412.544 234.091,7.211 C 232.614,2.898 228.559,0 224,0 H 53.333 C 23.878,0 0,23.878 0,53.333 v 320 c 0,29.455 23.878,53.333 53.333,53.333 h 309.333 c 5.891,0 10.666,-4.776 10.666,-10.667 0.001,-1.175 -0.194,-2.343 -0.575,-3.455 z"
       style="fill:#ffaa16;fill-opacity:1"
       inkscape:connector-curvature="0" />
    <g
       id="g51">
      <path
         id="path47"
         d="m 202.667,298.667 c -4.51,0.001 -8.533,-2.835 -10.048,-7.083 L 149.334,170.368 106.049,291.584 c -2.203,5.464 -8.418,8.107 -13.882,5.904 -5.155,-2.078 -7.85,-7.767 -6.193,-13.072 l 53.333,-149.333 c 2.609,-5.543 9.218,-7.922 14.761,-5.314 2.335,1.099 4.214,2.978 5.314,5.314 l 53.333,149.333 c 1.986,5.531 -0.876,11.627 -6.4,13.632 -1.172,0.415 -2.406,0.624 -3.648,0.619 z"
         style="fill:#fafafa"
         inkscape:connector-curvature="0" />
      <path
         id="path49"
         d="M 170.667,234.667 H 128 c -5.891,0 -10.667,-4.776 -10.667,-10.667 0,-5.891 4.776,-10.667 10.667,-10.667 h 42.667 c 5.891,0 10.667,4.776 10.667,10.667 -0.001,5.891 -4.776,10.667 -10.667,10.667 z"
         style="fill:#fafafa"
         inkscape:connector-curvature="0" />
    </g>
    <g
       id="g53" />
    <g
       id="g55" />
    <g
       id="g57" />
    <g
       id="g59" />
    <g
       id="g61" />
    <g
       id="g63" />
    <g
       id="g65" />
    <g
       id="g67" />
    <g
       id="g69" />
    <g
       id="g71" />
    <g
       id="g73" />
    <g
       id="g75" />
    <g
       id="g77" />
    <g
       id="g79" />
    <g
       id="g81" />
  </g>
</svg>
