<?xml version="1.0" encoding="UTF-8" standalone="no"?>
<svg
   xmlns:dc="http://purl.org/dc/elements/1.1/"
   xmlns:cc="http://creativecommons.org/ns#"
   xmlns:rdf="http://www.w3.org/1999/02/22-rdf-syntax-ns#"
   xmlns:svg="http://www.w3.org/2000/svg"
   xmlns="http://www.w3.org/2000/svg"
   xmlns:sodipodi="http://sodipodi.sourceforge.net/DTD/sodipodi-0.dtd"
   xmlns:inkscape="http://www.inkscape.org/namespaces/inkscape"
   id="color"
   enable-background="new 0 0 24 24"
   height="512"
   viewBox="0 0 24 24"
   width="512"
   version="1.1"
   sodipodi:docname="robotics.svg"
   inkscape:version="1.0.1 (3bc2e813f5, 2020-09-07)">
  <metadata
     id="metadata63">
    <rdf:RDF>
      <cc:Work
         rdf:about="">
        <dc:format>image/svg+xml</dc:format>
        <dc:type
           rdf:resource="http://purl.org/dc/dcmitype/StillImage" />
      </cc:Work>
    </rdf:RDF>
  </metadata>
  <defs
     id="defs61" />
  <sodipodi:namedview
     pagecolor="#ffffff"
     bordercolor="#666666"
     borderopacity="1"
     objecttolerance="10"
     gridtolerance="10"
     guidetolerance="10"
     inkscape:pageopacity="0"
     inkscape:pageshadow="2"
     inkscape:window-width="1920"
     inkscape:window-height="1001"
     id="namedview59"
     showgrid="false"
     inkscape:zoom="0.81054688"
     inkscape:cx="273.86864"
     inkscape:cy="421.66185"
     inkscape:window-x="-9"
     inkscape:window-y="-9"
     inkscape:window-maximized="1"
     inkscape:current-layer="color" />
  <path
     d="m 12.086747,14.671084 c -0.380414,0 -0.689157,-0.308742 -0.689157,-0.689157 v -3.790361 c 0,-0.3804142 0.308743,-0.6891563 0.689157,-0.6891563 0.380414,0 0.689157,0.3087421 0.689157,0.6891563 v 3.790361 c 0,0.380415 -0.308743,0.689157 -0.689157,0.689157 z"
     fill="#607d8b"
     id="path2"
     style="stroke-width:0.689157" />
  <path
     d="M 15.704819,16.566265 H 8.4686747 c -0.2853108,0 -0.5168674,-0.231557 -0.5168674,-0.516868 v -1.378313 c 0,-0.665036 0.5409879,-1.206024 1.2060241,-1.206024 h 5.8578306 c 0.665036,0 1.206024,0.540988 1.206024,1.206024 v 1.378313 c 0,0.285311 -0.231556,0.516868 -0.516867,0.516868 z"
     fill="#ffc107"
     id="path4"
     style="stroke-width:0.689157" />
  <path
     d="M 17.944578,15.53253 H 6.2289157 c -1.3300723,0 -2.4120482,1.081976 -2.4120482,2.412048 0,1.330072 1.0819759,2.412048 2.4120482,2.412048 H 17.944578 c 1.330072,0 2.412048,-1.081976 2.412048,-2.412048 0,-1.330072 -1.081976,-2.412048 -2.412048,-2.412048 z"
     fill="#607d8b"
     id="path6"
     style="stroke-width:0.689157" />
  <path
     d="M 12.086747,13.46506 H 11.39759 9.1578314 c -0.6650362,0 -1.2060241,0.540988 -1.2060241,1.206024 v 0.861446 h 4.1349397 z"
     fill="#dea806"
     id="path8"
     style="stroke-width:0.689157" />
  <path
     d="M 12.086747,15.53253 H 7.9518073 6.2289157 c -1.3300723,0 -2.4120482,1.081976 -2.4120482,2.412048 0,1.330072 1.0819759,2.412048 2.4120482,2.412048 h 5.8578313 z"
     fill="#546d79"
     id="path10"
     style="stroke-width:0.689157" />
  <g
     fill="#607d8b"
     id="g20"
     transform="matrix(0.68915663,0,0,0.68915663,3.8168675,3.8168675)">
    <path
       d="m 22,6 h -2.75 c -0.552,0 -1,-0.448 -1,-1 0,-0.552 0.448,-1 1,-1 H 22 c 0.552,0 1,0.448 1,1 0,0.552 -0.448,1 -1,1 z"
       id="path12" />
    <path
       d="M 22,8 C 21.448,8 21,7.552 21,7 V 3 c 0,-0.552 0.448,-1 1,-1 0.552,0 1,0.448 1,1 v 4 c 0,0.552 -0.448,1 -1,1 z"
       id="path14" />
    <path
       d="M 4.75,6 H 2 C 1.448,6 1,5.552 1,5 1,4.448 1.448,4 2,4 h 2.75 c 0.552,0 1,0.448 1,1 0,0.552 -0.448,1 -1,1 z"
       id="path16" />
    <path
       d="M 2,8 C 1.448,8 1,7.552 1,7 V 3 C 1,2.448 1.448,2 2,2 2.552,2 3,2.448 3,3 V 7 C 3,7.552 2.552,8 2,8 Z"
       id="path18" />
  </g>
  <path
     d="M 7.0903615,6.573494 H 5.8843374 v 1.3783133 h 1.2060241 c 0.059267,0 0.1171566,-0.00758 0.1722891,-0.022053 V 6.595547 C 7.2075181,6.5810747 7.1496289,6.573494 7.0903615,6.573494 Z"
     fill="#546d79"
     id="path22"
     style="stroke-width:0.689157" />
  <path
     d="m 5.1951808,5.1951808 c -0.3804145,0 -0.6891567,0.3087421 -0.6891567,0.6891566 v 1.3783132 1.3783133 c 0,0.3804144 0.3087422,0.6891566 0.6891567,0.6891566 0.3804144,0 0.6891566,-0.3087422 0.6891566,-0.6891566 V 7.9518073 6.573494 5.8843374 c 0,-0.3804145 -0.3087422,-0.6891566 -0.6891566,-0.6891566 z"
     fill="#546d79"
     id="path24"
     style="stroke-width:0.689157" />
  <path
     d="M 15.015662,3.8168675 H 9.1578314 c -1.0454506,0 -1.8951808,0.8497301 -1.8951808,1.8951807 V 8.813253 c 0,1.0454506 0.8497302,1.895181 1.8951808,1.895181 h 5.8578306 c 1.045451,0 1.895181,-0.8497304 1.895181,-1.895181 V 5.7120482 c 0,-1.0454506 -0.84973,-1.8951807 -1.895181,-1.8951807 z"
     fill="#ffc107"
     id="path26"
     style="stroke-width:0.689157" />
  <path
     d="M 12.086747,3.8168675 H 9.1578314 c -1.0454506,0 -1.8951808,0.8497301 -1.8951808,1.8951807 V 6.595547 7.9304434 8.813253 c 0,1.0454506 0.8497302,1.895181 1.8951808,1.895181 h 2.2397586 0.689157 z"
     fill="#dea806"
     id="path28"
     style="stroke-width:0.689157" />
  <circle
     cx="14.154217"
     cy="7.2626505"
     fill="#ffffff"
     r="1.3783133"
     id="circle30"
     style="stroke-width:0.689157" />
  <circle
     cx="10.363855"
     cy="17.944578"
     fill="#ffffff"
     r="1.0337349"
     id="circle32"
     style="stroke-width:0.689157" />
  <circle
     cx="13.809639"
     cy="17.944578"
     fill="#ffffff"
     r="1.0337349"
     id="circle34"
     style="stroke-width:0.689157" />
  <circle
     cx="17.255421"
     cy="17.944578"
     fill="#ffffff"
     r="1.0337349"
     id="circle36"
     style="stroke-width:0.689157" />
  <path
     d="M 12.086747,10.708434 H 11.39759 v 2.756626 h 0.689157 z"
     fill="#546d79"
     id="path38"
     style="stroke-width:0.689157" />
  <path
     d="m 10.019277,8.6409639 c -0.7601396,0 -1.3783131,-0.6181735 -1.3783131,-1.3783133 0,-0.7601397 0.6181735,-1.3783132 1.3783131,-1.3783132 0.76014,0 1.378313,0.6181735 1.378313,1.3783132 0,0.7601398 -0.618173,1.3783133 -1.378313,1.3783133 z"
     fill="#ffffff"
     id="path40"
     style="stroke-width:0.689157" />
  <path
     d="m 6.9180723,18.978313 c -0.5699325,0 -1.0337349,-0.463803 -1.0337349,-1.033735 0,-0.569933 0.4638024,-1.033735 1.0337349,-1.033735 0.5699326,0 1.033735,0.463802 1.033735,1.033735 0,0.569932 -0.4638024,1.033735 -1.033735,1.033735 z"
     fill="#ffffff"
     id="path42"
     style="stroke-width:0.689157" />
  <g
     fill="#dedede"
     id="g56"
     transform="matrix(0.68915663,0,0,0.68915663,3.8168675,3.8168675)">
    <path
       d="M 9,3 C 7.897,3 7,3.897 7,5 7,6.103 7.897,7 9,7 Z"
       id="path44" />
    <path
       d="m 15,3 c -1.103,0 -2,0.897 -2,2 0,1.103 0.897,2 2,2 z"
       id="path46" />
    <path
       d="M 4.5,19 C 3.673,19 3,19.673 3,20.5 3,21.327 3.673,22 4.5,22 Z"
       id="path48" />
    <path
       d="M 9.5,19 C 8.673,19 8,19.673 8,20.5 8,21.327 8.673,22 9.5,22 Z"
       id="path50" />
    <path
       d="m 14.5,19 c -0.827,0 -1.5,0.673 -1.5,1.5 0,0.827 0.673,1.5 1.5,1.5 z"
       id="path52" />
    <path
       d="m 19.5,19 c -0.827,0 -1.5,0.673 -1.5,1.5 0,0.827 0.673,1.5 1.5,1.5 z"
       id="path54" />
  </g>
</svg>
