<?xml version="1.0" encoding="UTF-8" standalone="no"?>
<svg
   xmlns:dc="http://purl.org/dc/elements/1.1/"
   xmlns:cc="http://creativecommons.org/ns#"
   xmlns:rdf="http://www.w3.org/1999/02/22-rdf-syntax-ns#"
   xmlns:svg="http://www.w3.org/2000/svg"
   xmlns="http://www.w3.org/2000/svg"
   xmlns:sodipodi="http://sodipodi.sourceforge.net/DTD/sodipodi-0.dtd"
   xmlns:inkscape="http://www.inkscape.org/namespaces/inkscape"
   width="1600.136"
   height="456.287"
   viewBox="0 0 1600.136 456.287"
   version="1.1"
   id="svg6"
   sodipodi:docname="banner-bg.svg"
   inkscape:version="0.92.3 (2405546, 2018-03-11)">
  <metadata
     id="metadata12">
    <rdf:RDF>
      <cc:Work
         rdf:about="">
        <dc:format>image/svg+xml</dc:format>
        <dc:type
           rdf:resource="http://purl.org/dc/dcmitype/StillImage" />
      </cc:Work>
    </rdf:RDF>
  </metadata>
  <defs
     id="defs10" />
  <sodipodi:namedview
     pagecolor="#ffffff"
     bordercolor="#666666"
     borderopacity="1"
     objecttolerance="10"
     gridtolerance="10"
     guidetolerance="10"
     inkscape:pageopacity="0"
     inkscape:pageshadow="2"
     inkscape:window-width="1853"
     inkscape:window-height="1025"
     id="namedview8"
     showgrid="false"
     inkscape:zoom="0.21373183"
     inkscape:cx="800.06799"
     inkscape:cy="228.14349"
     inkscape:window-x="67"
     inkscape:window-y="27"
     inkscape:window-maximized="1"
     inkscape:current-layer="Group_1647" />
  <g
     id="Group_1647"
     data-name="Group 1647"
     transform="translate(1905.136 -962)">
    <rect
       id="Rectangle_582"
       data-name="Rectangle 582"
       width="1600"
       height="456"
       transform="translate(-1905 962)"
       fill="#f8f8f8" />
    <path
       id="Path_29803"
       data-name="Path 29803"
       d="M283.427,815.4a143.6,143.6,0,0,0,24.9-22.014c70.712-79.335,129.35-74.161,187.989-31.044s213.859,20.7,181.09-155.22S792.962,496.742,832.63,436.379c18.971-28.974,21.731-55.19,16.9-77.265H283.069S283.219,815.2,283.427,815.4Z"
       transform="translate(-2188.205 602.887)"
       fill="#f2f2f2"
       style="fill:#ff9955" />
    <path
       id="Path_29802"
       data-name="Path 29802"
       d="M909.347,361.977c-42.468-5.167-138.882-9.689-198.949,46.828-78.432,74.279-143.473,69.435-208.514,29.066S264.675,418.493,301.021,583.2,172.852,686.543,128.854,743.059c-21.043,27.128-24.1,51.672-18.747,72.341H909.347Z"
       transform="translate(-1214.843 602.886)"
       fill="#f2f2f2" />
  </g>
</svg>
